<svg version="1.2" xmlns="http://www.w3.org/2000/svg" viewBox="0 0 750 150" width="750" height="150"><defs><clipPath clipPathUnits="userSpaceOnUse" id="cp1"><path d="m0-300h750v750h-750z"/></clipPath></defs><style>.a{fill:#1c2e78}</style><g clip-path="url(#cp1)"><path class="a" d="m64.8 55.8c-5 0-10 1.2-12.7 3.4l-3.7 5.3v-26.1h-12.7v67.6h12.7v-6.5l3.2 5c2.5 1.8 7.5 2.8 11.5 2.8 12.6 0 23.5-9 23.5-26.7 0-14.4-8.1-24.8-21.8-24.8zm-4.2 42.6c-5.9 0-12.2-4-12.2-15.1v-2.3c0-12 5.7-16.3 12.7-16.3 7.5 0 12.3 6.7 12.3 16.7 0 11.4-5.4 17-12.8 17zm79.4-41.3h-12.7v24.9c0 11-4.4 16.3-10.7 16.3-5.9 0-8.9-3.2-9.5-8.3-0.3-2.5-0.4-5.2-0.4-6.7v-26.2h-12.7v28.8c0 4 0.1 6.5 0.5 9 1.1 6.7 7.2 12.4 17.3 12.4 4.7 0 8.2-0.9 11.8-3.3l3.7-6.3v8.3h12.7zm56.1 23.5c0-13.4-7.9-24.8-22.9-24.8-15 0-24.8 11-24.8 26 0 17.2 10.4 25.5 23.8 25.5 11.5 0 20.7-5.8 23.2-17.2h-12.7c-0.8 5.3-4.8 8.3-10.2 8.3-5.9 0-10.5-3.2-11.3-13.5h34.8c0.1-1.7 0.1-3.1 0.1-4.3zm-23.4-15.9c6.1 0 9.6 4.2 10.4 11.9h-21.5c1.1-8.1 5.2-11.9 11.1-11.9zm77.8 4.8c-1-8.5-7-13.7-17.4-13.7-4.7 0-8.3 0.9-11.7 3.4l-3.8 5.8v-7.9h-12.7v48.9h12.7v-22.3c0-13.6 4.9-19 11-19 6.2 0 9 3.5 9.4 8.7 0.2 2.5 0.2 4.8 0.2 6.8v25.8h12.7v-27.6c0-3.9-0.1-6.4-0.4-8.9zm57.9-12.4h-13.7l-12.1 39.4-12.3-39.4h-14.1l19.1 48.9h14.1zm12.1-18.2c-4.2 0-7 2.8-7 6.7 0 4.1 2.8 6.8 7 6.8 4.1 0 7-2.7 7-6.8 0-3.9-2.9-6.7-7-6.7zm6.3 67.2v-49h-12.7v49zm40.2 0h12.5c-0.8-5.4-1-8.8-1-12.4v-15.9c0-2.6-0.1-5.2-0.2-7.5-0.8-8.5-5.9-14.4-19.6-14.4-11.7 0-20.6 6.2-21 17.3l12.3-0.1c0.4-5.4 3.1-8.3 8.2-8.3 5 0 7.2 2.5 7.6 5.9 0.1 1.6 0.1 3.1 0.1 4.6v1h-3.1c-17.7 0-26.9 6.1-26.9 16.8 0 9.3 7.2 14.3 15.7 14.3 4.6 0 8.7-0.9 12.1-3.2l2.4-5.3zm-10.6-7.6c-4.5 0-7.4-2-7.4-6.4 0-6.4 6.8-8.7 16.9-8v4c0 6.8-4.3 10.4-9.5 10.4zm40-59.5c-4.6 0-7 2.3-7 6.7 0 4.4 2.4 6.7 7 6.7 4.5 0 6.9-2.3 6.9-6.7 0-4.4-2.4-6.7-6.9-6.7zm6.2 18.2h-12.6v50.2c0 1.4-0.1 2.9-0.2 4.2-0.4 3.8-2.8 5-8.3 4.5v9.1c1.3 0.1 2.9 0.2 4.7 0.2 11.2 0 15.6-4.6 16.2-12.3 0.1-1.7 0.2-4 0.2-5.9zm56.1 23.5c0-13.4-8-24.8-23-24.8-15 0-24.8 11-24.8 26 0 17.2 10.4 25.5 23.8 25.5 11.5 0 20.7-5.7 23.2-17.2h-12.7c-0.8 5.3-4.8 8.3-10.2 8.3-5.9 0-10.5-3.2-11.3-13.5h34.8c0.2-1.7 0.2-3.1 0.2-4.3zm-23.5-15.8c6.1 0 9.6 4.1 10.4 11.8h-21.5c1.1-8.1 5.2-11.8 11.1-11.8zm37.6 27.1c-4.5 0-7.6 3.2-7.6 7.7 0 4.5 3.1 7.7 7.6 7.7 4.6 0 7.7-3.2 7.7-7.7 0-4.5-3.1-7.7-7.7-7.7zm38.3-36.1c-13.4 0-24.5 9.4-24.5 26.2 0 16.9 10 25.3 23.4 25.3 12.2 0 21.2-6.1 23.4-18.2h-12.7c-1.3 6.2-5 9.3-10 9.3-6.3 0-10.9-5.1-10.9-17.3 0-11.1 4.6-16.3 11-16.3 5.3 0 8.9 2.9 10.1 10h12.5c-0.9-10.9-9.1-19-22.3-19zm52.5 0c-16.3 0-25.4 10.9-25.4 25.8 0 14.8 9.1 25.7 25.4 25.7 16.3 0 25.4-10.9 25.4-25.7 0-14.9-9.1-25.8-25.4-25.8zm0 42.6c-7.6 0-12.2-6.3-12.2-16.8 0-10.6 4.6-16.8 12.2-16.8 7.7 0 12.3 6.2 12.3 16.8 0 10.5-4.6 16.8-12.3 16.8z"/><path class="a" d="m698.1 37.2h-22.3v-3.2c0-5.2-4.3-9.5-9.6-9.5h-12.7c-5.3 0-9.6 4.3-9.6 9.5v3.2h-22.3c-8.7 0-15.9 7.2-15.9 15.9v51c0 8.8 7.2 15.9 15.9 15.9h76.5c8.7 0 15.9-7.1 15.9-15.9v-51c0-8.7-7.2-15.9-15.9-15.9zm-73.3 6.4h6.4v70h-6.4zm12.8 0h44.5v70.1h-44.5zm50.9 0h6.4v70h-6.4zm-38.2-9.5c0-1.8 1.4-3.2 3.2-3.2h12.7c1.8 0 3.2 1.4 3.2 3.2v3.2h-19.1zm-38.2 70v-50.9c0-4.2 2.6-7.7 6.3-9v68.9c-3.7-1.3-6.3-4.8-6.3-9zm95.5 0c0 4.2-2.7 7.7-6.4 9v-68.9c3.7 1.3 6.4 4.8 6.4 9z"/></g></svg>