<svg version="1.2" xmlns="http://www.w3.org/2000/svg" viewBox="0 0 120 100" width="120" height="100"><defs><clipPath clipPathUnits="userSpaceOnUse" id="cp1"><path d="m-315-325h750v750h-750z"/></clipPath></defs><style>.a{fill:#1c2e78}</style><g clip-path="url(#cp1)"><path class="a" d="m98.1 15.2h-22.3v-3.2c0-5.2-4.3-9.5-9.6-9.5h-12.7c-5.3 0-9.6 4.3-9.6 9.5v3.2h-22.3c-8.7 0-15.9 7.2-15.9 15.9v51c0 8.8 7.2 15.9 15.9 15.9h76.5c8.7 0 15.9-7.1 15.9-15.9v-51c0-8.7-7.2-15.9-15.9-15.9zm-73.3 6.4h6.4v70h-6.4zm12.8 0h44.5v70.1h-44.5zm50.9 0h6.4v70h-6.4zm-38.2-9.5c0-1.8 1.4-3.2 3.2-3.2h12.7c1.8 0 3.2 1.4 3.2 3.2v3.2h-19.1zm-38.2 70v-50.9c0-4.2 2.6-7.7 6.3-9v68.9c-3.7-1.3-6.3-4.8-6.3-9zm95.5 0c0 4.2-2.7 7.7-6.4 9v-68.9c3.7 1.3 6.4 4.8 6.4 9z"/></g></svg>